<svg width="24" height="24" viewBox="0 0 24 24" fill="none" xmlns="http://www.w3.org/2000/svg">
<path fill-rule="evenodd" clip-rule="evenodd" d="M8.72727 3H15.2727V1.25C15.2727 1.184 15.2444 1.12 15.1931 1.073C15.1418 1.026 15.072 1 15 1H9C8.928 1 8.85818 1.026 8.80691 1.073C8.75564 1.12 8.72727 1.184 8.72727 1.25V3ZM20.7273 4H3.27273V22C3.27273 22.552 3.76145 23 4.36364 23H19.6364C20.2385 23 20.7273 22.552 20.7273 22V4ZM9.81818 7.5C9.81818 7.224 9.57382 7 9.27273 7C8.97164 7 8.72727 7.224 8.72727 7.5V19.5C8.72727 19.776 8.97164 20 9.27273 20C9.57382 20 9.81818 19.776 9.81818 19.5V7.5ZM15.2727 7.5C15.2727 7.224 15.0284 7 14.7273 7C14.4262 7 14.1818 7.224 14.1818 7.5V19.5C14.1818 19.776 14.4262 20 14.7273 20C15.0284 20 15.2727 19.776 15.2727 19.5V7.5ZM24 3V4H21.8182V22C21.8182 23.105 20.8418 24 19.6364 24H4.36364C3.15818 24 2.18182 23.105 2.18182 22V4H0V3H7.63636V1C7.63636 0.448 8.12509 0 8.72727 0H15.2727C15.8749 0 16.3636 0.448 16.3636 1V3H24Z" fill="black"/>
</svg>
